<svg width="512" height="512" viewBox="0 0 512 512" fill="none" xmlns="http://www.w3.org/2000/svg">
  <!-- Rounded square background with blue→purple gradient -->
  <rect width="512" height="512" rx="128" fill="url(#gradient)"/>

  <!-- Chat bubble with soft integrated tail -->
  <path d="M256 148C196.35 148 148 196.35 148 256C148 288.2 162.4 317 185.2 336.4C182.8 346 178 358 172 368C184 364 200 357.6 211.2 352.8C224.4 359.2 239.6 364 256 364C315.65 364 364 315.65 364 256C364 196.35 315.65 148 256 148Z" fill="white"/>

  <!-- Prompt chevron > -->
  <text x="210" y="243" font-family="monospace" font-size="32" font-weight="700" fill="#3B82F6">&gt;</text>

  <!-- Code lines (centered) -->
  <rect x="234" y="226" width="76" height="10" rx="5" fill="#3B82F6" opacity="0.7"/>
  <rect x="210" y="254" width="100" height="10" rx="5" fill="#6366F1"/>
  <rect x="210" y="282" width="64" height="10" rx="5" fill="#8B5CF6"/>

  <defs>
    <linearGradient id="gradient" x1="0" y1="0" x2="512" y2="512" gradientUnits="userSpaceOnUse">
      <stop stop-color="#3B82F6"/>
      <stop offset="1" stop-color="#8B5CF6"/>
    </linearGradient>
  </defs>
</svg>
